<svg width="152" height="59" viewBox="0 0 152 59" fill="none" xmlns="http://www.w3.org/2000/svg">
<g clip-path="url(#clip0_2339_3243)">
<mask id="mask0_2339_3243" style="mask-type:luminance" maskUnits="userSpaceOnUse" x="0" y="0" width="152" height="59">
<path d="M152 57.2218V1.77818C152 0.796118 151.205 0 150.224 0L1.77562 0C0.794983 0 1.52588e-05 0.796118 1.52588e-05 1.77818V57.2218C1.52588e-05 58.2039 0.794983 59 1.77562 59L150.224 59C151.205 59 152 58.2039 152 57.2218Z" fill="white"/>
</mask>
<g mask="url(#mask0_2339_3243)">
<path d="M152 58.1109V0.88909C152 0.398059 151.603 0 151.112 0L0.887817 0C0.397507 0 1.52588e-05 0.398059 1.52588e-05 0.88909V58.1109C1.52588e-05 58.6019 0.397507 59 0.887817 59L151.112 59C151.603 59 152 58.6019 152 58.1109Z" fill="white"/>
<path d="M129.93 33.687C128.944 33.0914 127.781 32.7891 126.45 32.7891C125.118 32.7891 123.964 33.1269 122.961 33.7848C121.966 34.4428 121.185 35.3319 120.643 36.4343C120.102 37.5279 119.835 38.7549 119.835 40.0529C119.835 41.351 120.128 42.6491 120.706 43.7426C121.283 44.8362 122.099 45.7075 123.129 46.3299C124.159 46.9523 125.34 47.2634 126.636 47.2634C128.056 47.2634 129.282 46.9345 130.285 46.2943C131.288 45.6542 132.087 44.774 132.673 43.6715L132.78 43.467L130.516 42.3646L130.409 42.5424C129.53 44.0716 128.323 44.8096 126.698 44.8096C126.015 44.8096 125.349 44.6406 124.718 44.3206C124.097 44.0005 123.573 43.5026 123.165 42.8447C122.792 42.249 122.561 41.511 122.49 40.6575H132.842L132.886 40.4886C132.939 40.2841 132.975 40.0351 132.975 39.7595C132.975 38.417 132.709 37.2078 132.185 36.1587C131.661 35.1096 130.897 34.2738 129.912 33.6693L129.93 33.687ZM126.423 35.2341C127.275 35.2341 127.985 35.4119 128.536 35.7675C129.095 36.1231 129.504 36.5588 129.761 37.0745C129.983 37.519 130.125 37.9636 130.178 38.4081H122.668C122.898 37.5012 123.333 36.7455 123.946 36.1765C124.612 35.5541 125.446 35.2429 126.414 35.2429L126.423 35.2341Z" fill="#5F6368"/>
<path d="M112.724 32.7891C111.792 32.7891 110.904 33.0291 110.079 33.5092C109.457 33.8737 108.96 34.2916 108.587 34.7806V33.2069H106.039V46.8634H108.694V39.2083C108.694 38.5415 108.845 37.8835 109.137 37.2701C109.43 36.6655 109.839 36.1676 110.372 35.7942C110.886 35.4297 111.481 35.2429 112.138 35.2429C113.088 35.2429 113.852 35.5008 114.384 36.0076C114.917 36.5143 115.192 37.359 115.192 38.5059V46.8634H117.847V38.1681C117.847 36.5321 117.403 35.2074 116.533 34.2472C115.654 33.2781 114.375 32.7891 112.733 32.7891H112.724Z" fill="#5F6368"/>
<path d="M102.381 44.7739C101.822 44.7739 101.413 44.6139 101.138 44.276C100.898 43.9648 100.774 43.4669 100.774 42.7734V35.6429H103.979V33.1979H100.774V29.4727H98.1285V33.1979H95.8291V35.6429H98.1285V43.298C98.1285 43.9559 98.2173 44.5249 98.4037 44.9873C98.5901 45.4585 98.8654 45.8764 99.2294 46.2231C99.5579 46.5432 99.9751 46.801 100.455 46.9877C100.934 47.1744 101.467 47.2633 102.026 47.2633C102.461 47.2633 102.816 47.2367 103.091 47.1833C103.375 47.13 103.651 47.0411 103.935 46.9077L104.068 46.8455V44.1426L103.722 44.3649C103.295 44.6316 102.852 44.7739 102.39 44.7739H102.381Z" fill="#5F6368"/>
<path d="M142.962 33.0914C142.501 32.8869 141.95 32.7891 141.32 32.7891C140.468 32.7891 139.642 33.0469 138.87 33.5537C138.337 33.9004 137.92 34.3183 137.618 34.7895V33.2069H135.07V46.8634H137.724V39.2439C137.724 38.577 137.875 37.9369 138.177 37.3679C138.47 36.79 138.878 36.3276 139.385 35.9809C139.873 35.643 140.423 35.4741 141.018 35.4741C141.666 35.4741 142.261 35.6075 142.776 35.8653L143.104 36.0253V33.1536L142.971 33.0914H142.962Z" fill="#5F6368"/>
<path d="M93.3609 33.046C92.4464 33.046 91.5941 33.2772 90.8129 33.7217C90.2536 34.0507 89.8008 34.4774 89.4723 34.9931V33.4016H86.9243V47.0581H89.5788V39.5008C89.5788 38.3805 89.9073 37.4559 90.5643 36.7535C91.2213 36.0511 92.0647 35.7133 93.13 35.7133C93.6094 35.7133 93.9912 35.7488 94.2664 35.8111L94.5416 35.8733V33.1527L94.3641 33.1171C94.0888 33.0638 93.7515 33.0371 93.3609 33.0371V33.046Z" fill="#5F6368"/>
<path d="M68.2009 28.5923C67.2953 28.1122 66.2921 27.8633 65.2268 27.8633H58.7725V46.8542H61.4004V39.297H65.2356C66.3099 39.297 67.3042 39.0569 68.2098 38.5679C69.1242 38.0878 69.8611 37.4032 70.4026 36.5319C70.9531 35.6606 71.2283 34.6648 71.2283 33.5712C71.2283 32.4777 70.9531 31.4819 70.4026 30.6195C69.8611 29.757 69.1242 29.0724 68.2098 28.5834L68.2009 28.5923ZM66.9757 36.2919C66.4874 36.5941 65.9192 36.7542 65.2711 36.7542H61.3826V30.4239H65.2711C65.9104 30.4239 66.4874 30.575 66.9757 30.8773C67.464 31.1885 67.8546 31.5886 68.1299 32.0687C68.4051 32.5488 68.5382 33.0645 68.5382 33.589C68.5382 34.1136 68.3962 34.6293 68.1299 35.1094C67.8546 35.5895 67.4729 35.9896 66.9757 36.2919Z" fill="#5F6368"/>
<path d="M78.6948 32.7891C77.5584 32.7891 76.5108 33.0202 75.5786 33.4826C74.6375 33.9449 73.8918 34.6028 73.3591 35.4297L73.2437 35.6075L75.2679 37.1278L75.4011 36.9233C75.7384 36.3899 76.2089 35.9631 76.786 35.6697C77.372 35.3674 78.0201 35.2163 78.7214 35.2163C79.7158 35.2163 80.5414 35.5008 81.1806 36.052C81.8287 36.6121 82.1394 37.3234 82.1394 38.2481V38.6748C81.8021 38.5148 81.3759 38.3725 80.8521 38.2392C80.1508 38.0614 79.3961 37.9725 78.5882 37.9725C76.9458 37.9725 75.5609 38.3814 74.4689 39.1905C73.3591 40.0174 72.7998 41.1821 72.7998 42.6491C72.7998 43.5382 73.0218 44.3383 73.4568 45.0318C73.8918 45.7342 74.5133 46.2854 75.3034 46.6766C76.0847 47.0678 76.9902 47.2723 77.9934 47.2723C78.9966 47.2723 79.8756 47.0323 80.6657 46.57C81.2694 46.2143 81.7577 45.7964 82.1306 45.3163V46.8545H84.6785V38.2659C84.6785 36.5855 84.137 35.2341 83.0628 34.2561C81.9974 33.2781 80.5236 32.7891 78.6859 32.7891H78.6948ZM78.2065 44.8807C77.4164 44.8807 76.7683 44.6673 76.2533 44.2583C75.7562 43.8493 75.5076 43.3337 75.5076 42.6757C75.5076 41.9467 75.7828 41.3688 76.3421 40.9065C76.9103 40.4441 77.7715 40.2041 78.9256 40.2041C79.5737 40.2041 80.1952 40.2841 80.7811 40.453C81.3138 40.6042 81.7666 40.7998 82.1394 41.0309C82.1217 41.6977 81.9441 42.3201 81.6068 42.8891C81.2516 43.4937 80.7634 43.9827 80.1597 44.3383C79.556 44.694 78.899 44.8718 78.2065 44.8718V44.8807Z" fill="#5F6368"/>
<path d="M46.3343 28.6014C46.3343 27.2411 46.1213 25.9431 45.8993 24.6895H28.1167V32.0689H38.0956C37.6517 34.4517 36.5242 36.4788 34.5 37.848V42.658H40.6702C44.2658 39.3328 46.3343 34.4072 46.3343 28.5926V28.6014Z" fill="#4284F4"/>
<path d="M28.0726 47.272C33.2041 47.272 37.5277 45.5739 40.6794 42.6576L34.5092 37.8477C32.8135 38.9946 30.6295 39.6703 28.0726 39.6703C23.1187 39.6703 18.9194 36.3184 17.419 31.793H11.0713V36.7363C14.2052 42.9777 20.6329 47.2631 28.0726 47.2631V47.272Z" fill="#34A853"/>
<path d="M17.4188 31.802C17.0371 30.6551 16.824 29.4282 16.824 28.1657C16.824 26.9031 17.0371 25.6762 17.4188 24.5293V19.5859H11.0711C9.77487 22.1643 9.04688 25.0805 9.04688 28.1657C9.04688 31.2508 9.78375 34.167 11.0711 36.7454L17.4188 31.802Z" fill="#FBBC04"/>
<path d="M28.0726 16.6525C30.8692 16.6525 33.3728 17.6216 35.3526 19.5065L40.8037 14.0297C37.5099 10.9445 33.2041 9.05078 28.0726 9.05078C20.6418 9.05078 14.2052 13.3362 11.0713 19.5776L17.419 24.5209C18.9194 19.9955 23.1187 16.6436 28.0726 16.6436V16.6525Z" fill="#EA4335"/>
<path d="M65.5197 15.1144V16.937H69.8699C69.7368 17.9595 69.3994 18.7063 68.8756 19.2309C68.2364 19.871 67.2509 20.5645 65.5197 20.5645C62.8475 20.5645 60.7523 18.404 60.7523 15.719C60.7523 13.0339 62.8475 10.8734 65.5197 10.8734C66.958 10.8734 68.0144 11.4424 68.7957 12.1804L70.0741 10.9001C68.991 9.85096 67.5439 9.05078 65.5197 9.05078C61.8531 9.05078 58.7725 12.0381 58.7725 15.7101C58.7725 19.382 61.8531 22.3693 65.5197 22.3693C67.4995 22.3693 68.991 21.7203 70.1629 20.5023C71.3614 19.302 71.7343 17.6038 71.7343 16.2435C71.7343 15.8256 71.7077 15.4256 71.6367 15.1055H65.5197V15.1144Z" fill="#4284F4"/>
<path d="M77.1676 13.6387C74.7972 13.6387 72.8618 15.4435 72.8618 17.9419C72.8618 20.4402 74.7972 22.2451 77.1676 22.2451C79.5381 22.2451 81.4735 20.4224 81.4735 17.9419C81.4735 15.4613 79.5381 13.6387 77.1676 13.6387ZM77.1676 20.5469C75.8626 20.5469 74.744 19.4711 74.744 17.9419C74.744 16.4126 75.8715 15.3368 77.1676 15.3368C78.4638 15.3368 79.5913 16.3949 79.5913 17.9419C79.5913 19.4889 78.4638 20.5469 77.1676 20.5469Z" fill="#4284F4"/>
<path d="M98.2974 14.5989H98.2352C97.818 14.0921 97.0012 13.6387 95.9713 13.6387C93.8317 13.6387 91.9585 15.5147 91.9585 17.9419C91.9585 20.3691 93.8317 22.2451 95.9713 22.2451C97.0012 22.2451 97.8091 21.7827 98.2352 21.2671H98.2974V21.8628C98.2974 23.5076 97.4185 24.3878 96.0069 24.3878C94.8527 24.3878 94.1336 23.5609 93.8406 22.8585L92.1982 23.5431C92.6687 24.6812 93.9205 26.0859 96.0069 26.0859C98.2175 26.0859 100.091 24.779 100.091 21.6049V13.8698H98.2974V14.6078V14.5989ZM96.1311 20.5469C94.8261 20.5469 93.8406 19.4355 93.8406 17.9419C93.8406 16.4482 94.835 15.3368 96.1311 15.3368C97.4273 15.3368 98.4217 16.4482 98.4217 17.9596C98.4217 19.4622 97.4185 20.5469 96.1311 20.5469Z" fill="#4284F4"/>
<path d="M86.7736 13.6387C84.4032 13.6387 82.4678 15.4435 82.4678 17.9419C82.4678 20.4402 84.4032 22.2451 86.7736 22.2451C89.144 22.2451 91.0794 20.4224 91.0794 17.9419C91.0794 15.4435 89.144 13.6387 86.7736 13.6387ZM86.7736 20.5469C85.4685 20.5469 84.3499 19.4711 84.3499 17.9419C84.3499 16.4126 85.4774 15.3368 86.7736 15.3368C88.0698 15.3368 89.1973 16.3949 89.1973 17.9419C89.1973 19.4889 88.0698 20.5469 86.7736 20.5469Z" fill="#4284F4"/>
<path d="M101.564 9.22852H103.42V22.2359H101.564V9.22852Z" fill="#4284F4"/>
<path d="M109.146 20.5469C108.187 20.5469 107.504 20.1112 107.06 19.2399L112.804 16.8661L112.609 16.3771C112.253 15.4169 111.161 13.6387 108.933 13.6387C106.705 13.6387 104.885 15.3813 104.885 17.9419C104.885 20.3513 106.705 22.2451 109.146 22.2451C111.108 22.2451 112.253 21.0359 112.724 20.3424L111.259 19.3644C110.771 20.0757 110.105 20.5469 109.146 20.5469ZM109.013 15.2568C109.777 15.2568 110.425 15.648 110.638 16.2081L106.758 17.8174C106.758 16.0125 108.036 15.2657 109.013 15.2657V15.2568Z" fill="#4284F4"/>
<path d="M75.9956 57.1855H0V58.9993H75.9956V57.1855Z" fill="#34A853"/>
<path d="M151.991 57.1855H75.9956V58.9993H151.991V57.1855Z" fill="#4284F4"/>
</g>
</g>
<defs>
<clipPath id="clip0_2339_3243">
<rect width="152" height="59" fill="white"/>
</clipPath>
</defs>
</svg>
