<svg width="72" height="72" viewBox="0 0 72 72" fill="none" xmlns="http://www.w3.org/2000/svg">
<rect width="72" height="72" rx="20" fill="white" fill-opacity="0.04"/>
<mask id="mask0_2346_3236" style="mask-type:alpha" maskUnits="userSpaceOnUse" x="19" y="19" width="34" height="34">
<rect x="19" y="19" width="34" height="34" fill="#D9D9D9"/>
</mask>
<g mask="url(#mask0_2346_3236)">
<path d="M27.3905 48.7487C26.8474 48.7487 26.3221 48.5598 25.8145 48.182C25.3068 47.8042 24.9704 47.3438 24.8051 46.8008C24.2148 44.8174 23.7308 43.0997 23.353 41.6477C22.9752 40.1956 22.6742 38.9206 22.4499 37.8227C22.2256 36.7247 22.0662 35.7508 21.9717 34.9008C21.8773 34.0508 21.8301 33.2362 21.8301 32.457C21.8301 30.2848 22.5856 28.4431 24.0967 26.932C25.6079 25.4209 27.4495 24.6654 29.6217 24.6654H36.7051C37.3426 23.8154 38.1513 23.1306 39.1311 22.6112C40.111 22.0918 41.1912 21.832 42.3717 21.832C42.962 21.832 43.4638 22.0386 43.877 22.4518C44.2902 22.865 44.4967 23.3668 44.4967 23.957C44.4967 24.0987 44.479 24.2404 44.4436 24.382C44.4082 24.5237 44.3669 24.6536 44.3197 24.7716C44.2252 25.0313 44.1367 25.2911 44.054 25.5508C43.9714 25.8105 43.9065 26.0938 43.8592 26.4008L47.0822 29.6237H48.7467C49.1481 29.6237 49.4846 29.7595 49.7561 30.031C50.0277 30.3025 50.1634 30.639 50.1634 31.0404V38.4779C50.1634 38.7848 50.0749 39.0563 49.8978 39.2924C49.7207 39.5286 49.4787 39.7056 49.1718 39.8237L46.1613 40.8154L44.3905 46.7299C44.2016 47.3438 43.8592 47.8338 43.3634 48.1997C42.8676 48.5657 42.3009 48.7487 41.6634 48.7487H38.8301C38.0509 48.7487 37.3839 48.4713 36.829 47.9164C36.2742 47.3615 35.9967 46.6945 35.9967 45.9154H33.1634C33.1634 46.6945 32.886 47.3615 32.3311 47.9164C31.7763 48.4713 31.1092 48.7487 30.3301 48.7487H27.3905ZM41.6634 34.582C42.0648 34.582 42.4013 34.4463 42.6728 34.1747C42.9443 33.9032 43.0801 33.5668 43.0801 33.1654C43.0801 32.764 42.9443 32.4275 42.6728 32.156C42.4013 31.8845 42.0648 31.7487 41.6634 31.7487C41.262 31.7487 40.9256 31.8845 40.654 32.156C40.3825 32.4275 40.2467 32.764 40.2467 33.1654C40.2467 33.5668 40.3825 33.9032 40.654 34.1747C40.9256 34.4463 41.262 34.582 41.6634 34.582ZM35.9967 31.7487C36.3981 31.7487 36.7346 31.6129 37.0061 31.3414C37.2777 31.0699 37.4134 30.7334 37.4134 30.332C37.4134 29.9306 37.2777 29.5942 37.0061 29.3227C36.7346 29.0511 36.3981 28.9154 35.9967 28.9154H31.7467C31.3454 28.9154 31.0089 29.0511 30.7374 29.3227C30.4658 29.5942 30.3301 29.9306 30.3301 30.332C30.3301 30.7334 30.4658 31.0699 30.7374 31.3414C31.0089 31.6129 31.3454 31.7487 31.7467 31.7487H35.9967Z" fill="#EDF5FF"/>
</g>
</svg>
