<svg width="72" height="72" viewBox="0 0 72 72" fill="none" xmlns="http://www.w3.org/2000/svg">
<rect width="72" height="72" rx="20" fill="white" fill-opacity="0.04"/>
<mask id="mask0_2346_3244" style="mask-type:alpha" maskUnits="userSpaceOnUse" x="19" y="19" width="34" height="34">
<rect x="19" y="19" width="34" height="34" fill="#D9D9D9"/>
</mask>
<g mask="url(#mask0_2346_3244)">
<path d="M34.7263 47.0155C34.3485 47.0155 34.0239 46.8856 33.7524 46.6259C33.4808 46.3662 33.3451 46.0474 33.3451 45.6697V37.3467L25.3409 27.1467C24.9985 26.6981 24.9484 26.2259 25.1904 25.7301C25.4324 25.2342 25.8485 24.9863 26.4388 24.9863H45.5638C46.1541 24.9863 46.5702 25.2342 46.8123 25.7301C47.0543 26.2259 47.0041 26.6981 46.6617 27.1467L38.6576 37.3467V45.6697C38.6576 46.0474 38.5218 46.3662 38.2503 46.6259C37.9788 46.8856 37.6541 47.0155 37.2763 47.0155H34.7263Z" fill="#EDF5FF"/>
</g>
</svg>
