<svg width="72" height="72" viewBox="0 0 72 72" fill="none" xmlns="http://www.w3.org/2000/svg">
<rect width="72" height="72" rx="20" fill="white" fill-opacity="0.04"/>
<mask id="mask0_2346_3252" style="mask-type:alpha" maskUnits="userSpaceOnUse" x="19" y="19" width="34" height="34">
<rect x="19" y="19" width="34" height="34" fill="#D9D9D9"/>
</mask>
<g mask="url(#mask0_2346_3252)">
<path d="M40.8905 43.1883L47.8191 36.2597C48.0757 36.0031 48.3871 35.8747 48.753 35.8747C49.119 35.8747 49.4319 36.0046 49.6916 36.2643C49.9513 36.524 50.0812 36.8369 50.0812 37.2029C50.0812 37.5688 49.9513 37.8817 49.6916 38.1414L41.8291 46.0039C41.5618 46.2754 41.25 46.4112 40.8937 46.4112C40.5374 46.4112 40.2235 46.2754 39.952 46.0039L35.9789 42.0309C35.7235 41.7754 35.5957 41.4647 35.5957 41.0987C35.5957 40.7327 35.7256 40.4199 35.9853 40.1602C36.245 39.9004 36.5579 39.7706 36.9239 39.7706C37.2898 39.7706 37.602 39.8997 37.8603 40.158L40.8905 43.1883ZM26.228 48.4299C25.4975 48.4299 24.8722 48.1699 24.352 47.6497C23.8319 47.1296 23.5718 46.5042 23.5718 45.7737V26.2237C23.5718 25.4932 23.8319 24.8678 24.352 24.3477C24.8722 23.8275 25.4975 23.5674 26.228 23.5674H32.2134C32.4496 22.7411 32.9247 22.0681 33.639 21.5487C34.3532 21.0293 35.1412 20.7695 36.003 20.7695C36.8884 20.7695 37.6853 21.0293 38.3937 21.5487C39.102 22.0681 39.5742 22.7411 39.8103 23.5674H45.778C46.5086 23.5674 47.1339 23.8275 47.6541 24.3477C48.1742 24.8678 48.4343 25.4932 48.4343 26.2237V31.8727C48.4343 32.2386 48.3044 32.5515 48.0447 32.8112C47.785 33.0709 47.4721 33.2008 47.1062 33.2008C46.7402 33.2008 46.4273 33.0709 46.1676 32.8112C45.9079 32.5515 45.778 32.2386 45.778 31.8727V26.2237H43.1218V28.8799C43.1218 29.2459 42.9919 29.5588 42.7322 29.8185C42.4725 30.0782 42.1596 30.2081 41.7937 30.2081H30.2124C29.8464 30.2081 29.5336 30.0782 29.2739 29.8185C29.0141 29.5588 28.8843 29.2459 28.8843 28.8799V26.2237H26.228V45.7737H33.2582C33.6242 45.7737 33.9371 45.9036 34.1968 46.1633C34.4565 46.423 34.5864 46.7358 34.5864 47.1018C34.5864 47.4678 34.4565 47.7806 34.1968 48.0404C33.9371 48.3001 33.6242 48.4299 33.2582 48.4299H26.228ZM36.003 26.082C36.369 26.082 36.6818 25.9522 36.9416 25.6924C37.2013 25.4327 37.3312 25.1199 37.3312 24.7539C37.3312 24.3879 37.2013 24.0751 36.9416 23.8154C36.6818 23.5556 36.369 23.4258 36.003 23.4258C35.6371 23.4258 35.3242 23.5556 35.0645 23.8154C34.8048 24.0751 34.6749 24.3879 34.6749 24.7539C34.6749 25.1199 34.8048 25.4327 35.0645 25.6924C35.3242 25.9522 35.6371 26.082 36.003 26.082Z" fill="#EDF5FF"/>
</g>
</svg>
