<svg width="72" height="72" viewBox="0 0 72 72" fill="none" xmlns="http://www.w3.org/2000/svg">
<rect width="72" height="72" rx="20" fill="white" fill-opacity="0.04"/>
<mask id="mask0_2346_3232" style="mask-type:alpha" maskUnits="userSpaceOnUse" x="19" y="19" width="34" height="34">
<rect x="19" y="19" width="34" height="34" fill="#D9D9D9"/>
</mask>
<g mask="url(#mask0_2346_3232)">
<path d="M26.9189 47.9177C27.4737 48.4726 28.1408 48.75 28.9199 48.75H33.0283C33.4296 48.75 33.7425 48.567 33.9668 48.201C34.1911 47.8351 34.2088 47.4514 34.0199 47.05C33.7602 46.4361 33.5536 45.7927 33.4001 45.1198C33.2467 44.4469 33.1699 43.7681 33.1699 43.0833C32.7685 43.0833 32.4321 42.9476 32.1605 42.676C31.889 42.4045 31.7533 42.0681 31.7533 41.6667V31.75C31.7533 31.3486 31.889 31.0122 32.1605 30.7406C32.4321 30.4691 32.7685 30.3333 33.1699 30.3333C33.5713 30.3333 33.9078 30.4691 34.1793 30.7406C34.4508 31.0122 34.5866 31.3486 34.5866 31.75V37.9833C34.9408 37.3694 35.3599 36.8087 35.8439 36.301C36.3279 35.7934 36.8533 35.3389 37.4199 34.9375V31.75C37.4199 31.3486 37.5557 31.0122 37.8272 30.7406C38.0987 30.4691 38.4352 30.3333 38.8366 30.3333C39.238 30.3333 39.5744 30.4691 39.846 30.7406C40.1175 31.0122 40.2533 31.3486 40.2533 31.75V33.5562C40.7255 33.4146 41.1977 33.3142 41.6699 33.2552C42.1421 33.1962 42.6144 33.1667 43.0866 33.1667C43.2991 33.1667 43.5116 33.1726 43.7241 33.1844C43.9366 33.1962 44.1373 33.2139 44.3262 33.2375C44.7512 33.3083 45.123 33.2139 45.4418 32.9542C45.7605 32.6944 45.9199 32.3639 45.9199 31.9625V27.5C46.3213 27.5 46.6578 27.3642 46.9293 27.0927C47.2008 26.8212 47.3366 26.4847 47.3366 26.0833C47.3366 25.6819 47.2008 25.3455 46.9293 25.074C46.6578 24.8024 46.3213 24.6667 45.9199 24.6667H40.2533C40.2533 24.2653 40.1175 23.9288 39.846 23.6573C39.5744 23.3858 39.238 23.25 38.8366 23.25H33.1699C32.7685 23.25 32.4321 23.3858 32.1605 23.6573C31.889 23.9288 31.7533 24.2653 31.7533 24.6667H26.0866C25.6852 24.6667 25.3487 24.8024 25.0772 25.074C24.8057 25.3455 24.6699 25.6819 24.6699 26.0833C24.6699 26.4847 24.8057 26.8212 25.0772 27.0927C25.3487 27.3642 25.6852 27.5 26.0866 27.5V45.9167C26.0866 46.6958 26.364 47.3628 26.9189 47.9177Z" fill="#EDF5FF"/>
<path fill-rule="evenodd" clip-rule="evenodd" d="M38.0751 48.0948C39.4564 49.476 41.1269 50.1667 43.0866 50.1667C45.0463 50.1667 46.7168 49.476 48.098 48.0948C49.4793 46.7135 50.1699 45.0431 50.1699 43.0833C50.1699 41.1236 49.4793 39.4531 48.098 38.0719C46.7168 36.6906 45.0463 36 43.0866 36C41.1269 36 39.4564 36.6906 38.0751 38.0719C36.6939 39.4531 36.0033 41.1236 36.0033 43.0833C36.0033 45.0431 36.6939 46.7135 38.0751 48.0948ZM42.6857 48.5359C42.8043 48.6786 42.9544 48.75 43.1358 48.75C43.3172 48.75 43.4637 48.6786 43.5754 48.5359C43.694 48.4012 43.7533 48.2347 43.7533 48.0365V47.2871C44.1373 47.2126 44.4792 47.0818 44.7791 46.8948C45.1349 46.6728 45.414 46.3834 45.6164 46.0267C45.8187 45.662 45.9199 45.2457 45.9199 44.778C45.9199 44.1834 45.7594 43.6997 45.4385 43.3271C45.1245 42.9545 44.636 42.6849 43.9731 42.5184L42.8113 42.233C42.4694 42.1458 42.2287 42.0348 42.0891 41.9C41.9565 41.7653 41.8902 41.5869 41.8902 41.3649C41.8902 41.0636 42.0019 40.8179 42.2252 40.6276C42.4554 40.4373 42.7764 40.3422 43.1881 40.3422C43.5161 40.3422 43.7917 40.3778 44.015 40.4492C44.2383 40.5205 44.4441 40.6078 44.6325 40.7108C44.8139 40.8139 44.9709 40.8535 45.1035 40.8297C45.2431 40.798 45.3547 40.7306 45.4385 40.6276C45.5222 40.5166 45.5745 40.3897 45.5955 40.247C45.6234 40.1043 45.6094 39.9616 45.5536 39.8189C45.5047 39.6762 45.414 39.5573 45.2815 39.4621C45.0372 39.2639 44.7477 39.1133 44.4127 39.0102C44.1826 38.9324 43.9628 38.8779 43.7533 38.8468V38.1302C43.7533 37.932 43.694 37.7655 43.5754 37.6307C43.4568 37.488 43.3102 37.4167 43.1358 37.4167C42.9544 37.4167 42.8043 37.488 42.6857 37.6307C42.5671 37.7655 42.5078 37.932 42.5078 38.1302V38.8783C42.1202 38.9443 41.7748 39.0715 41.4716 39.26C41.1087 39.4899 40.8226 39.7912 40.6133 40.1638C40.411 40.5364 40.3098 40.9606 40.3098 41.4363C40.3098 42.0467 40.4668 42.5462 40.7808 42.9347C41.0948 43.3152 41.5728 43.5848 42.2147 43.7434L43.366 44.0288C43.6033 44.0843 43.7917 44.1556 43.9312 44.2428C44.0778 44.3221 44.179 44.4172 44.2348 44.5282C44.2976 44.6392 44.329 44.7661 44.329 44.9088C44.329 45.0832 44.2836 45.2378 44.1929 45.3726C44.1092 45.5074 43.9696 45.6184 43.7743 45.7056C43.5789 45.7849 43.3207 45.8245 42.9997 45.8245C42.5671 45.8245 42.2008 45.773 41.9007 45.6699C41.6007 45.5589 41.3669 45.4519 41.1994 45.3488C41.025 45.2457 40.868 45.214 40.7284 45.2537C40.5959 45.2933 40.4877 45.3766 40.404 45.5034C40.3202 45.6223 40.2714 45.765 40.2574 45.9315C40.2435 46.0901 40.2644 46.2447 40.3202 46.3953C40.383 46.546 40.4912 46.6649 40.6447 46.7521C40.882 46.8948 41.1785 47.0256 41.5344 47.1445C41.8187 47.2396 42.1432 47.3017 42.5078 47.3309V48.0365C42.5078 48.2347 42.5671 48.4012 42.6857 48.5359Z" fill="#EDF5FF"/>
</g>
</svg>
