<svg width="72" height="72" viewBox="0 0 72 72" fill="none" xmlns="http://www.w3.org/2000/svg">
<rect width="72" height="72" rx="20" fill="white" fill-opacity="0.04"/>
<mask id="mask0_2346_3240" style="mask-type:alpha" maskUnits="userSpaceOnUse" x="19" y="19" width="34" height="34">
<rect x="19" y="19" width="34" height="34" fill="#D9D9D9"/>
</mask>
<g mask="url(#mask0_2346_3240)">
<path d="M35.5573 44.4115C33.3142 44.2934 31.4253 43.4257 29.8906 41.8083C28.3559 40.191 27.5885 38.2549 27.5885 36C27.5885 33.6634 28.4063 31.6774 30.0419 30.0419C31.6774 28.4063 33.6634 27.5885 36 27.5885C38.2549 27.5885 40.191 28.3559 41.8083 29.8906C43.4257 31.4253 44.2934 33.3142 44.4115 35.5573L41.6135 34.725C41.3184 33.4264 40.6543 32.355 39.6214 31.5109C38.5884 30.6668 37.3825 30.2448 36.0039 30.2448C34.4075 30.2448 33.0486 30.8056 31.9271 31.9271C30.8056 33.0486 30.2448 34.4075 30.2448 36.0039C30.2448 37.3825 30.6639 38.5884 31.5021 39.6214C32.3403 40.6543 33.4146 41.3184 34.725 41.6135L35.5573 44.4115ZM37.2573 50.025C37.0566 50.0604 36.8506 50.0781 36.6393 50.0781H36.0057C34.0573 50.0781 32.2264 49.7086 30.5129 48.9696C28.7994 48.2303 27.3089 47.2272 26.0412 45.9602C24.7737 44.6933 23.7704 43.2034 23.0311 41.4906C22.2916 39.7777 21.9219 37.9474 21.9219 36C21.9219 34.0526 22.2914 32.2223 23.0304 30.5094C23.7697 28.7966 24.7728 27.3067 26.0398 26.0398C27.307 24.7728 28.797 23.7697 30.5097 23.0304C32.2227 22.2914 34.053 21.9219 36.0007 21.9219C37.9482 21.9219 39.7782 22.2916 41.491 23.0311C43.2037 23.7704 44.6936 24.7737 45.9606 26.0412C47.2276 27.3089 48.2306 28.7994 48.9696 30.5129C49.7086 32.2264 50.0781 34.0573 50.0781 36.0057V36.6393C50.0781 36.8506 50.0604 37.0566 50.025 37.2573L47.4219 36.4604V36C47.4219 32.8243 46.3122 30.1267 44.0927 27.9073C41.8733 25.6878 39.1757 24.5781 36 24.5781C32.8243 24.5781 30.1267 25.6878 27.9073 27.9073C25.6878 30.1267 24.5781 32.8243 24.5781 36C24.5781 39.1757 25.6878 41.8733 27.9073 44.0927C30.1267 46.3122 32.8243 47.4219 36 47.4219H36.4604L37.2573 50.025ZM48.0771 50.875L42.0208 44.8188L40.25 50.1667L36 36L50.1667 40.25L44.8188 42.0208L50.875 48.0771L48.0771 50.875Z" fill="#EDF5FF"/>
</g>
</svg>
