<svg width="72" height="72" viewBox="0 0 72 72" fill="none" xmlns="http://www.w3.org/2000/svg">
<rect width="72" height="72" rx="20" fill="white" fill-opacity="0.04"/>
<mask id="mask0_2346_3248" style="mask-type:alpha" maskUnits="userSpaceOnUse" x="19" y="19" width="34" height="34">
<rect x="19" y="19" width="34" height="34" fill="#D9D9D9"/>
</mask>
<g mask="url(#mask0_2346_3248)">
<path d="M33.2418 41.6313C35.5675 41.6313 37.5508 40.8137 39.1918 39.1786C40.8327 37.5436 41.6532 35.5632 41.6532 33.2375C41.6532 30.9118 40.8327 28.9314 39.1918 27.2964C37.5508 25.6613 35.5675 24.8438 33.2418 24.8438C30.9161 24.8438 28.9386 25.6613 27.3095 27.2964C25.6803 28.9314 24.8657 30.9118 24.8657 33.2375C24.8657 35.5632 25.6803 37.5436 27.3095 39.1786C28.9386 40.8137 30.9161 41.6313 33.2418 41.6313ZM33.2595 37.3458C32.8935 37.3458 32.5807 37.216 32.3209 36.9563C32.0612 36.6965 31.9313 36.3837 31.9313 36.0177V29.076C31.9313 28.7101 32.0612 28.3972 32.3209 28.1375C32.5807 27.8778 32.8935 27.7479 33.2595 27.7479C33.6254 27.7479 33.9383 27.8778 34.198 28.1375C34.4577 28.3972 34.5876 28.7101 34.5876 29.076V36.0177C34.5876 36.3837 34.4577 36.6965 34.198 36.9563C33.9383 37.216 33.6254 37.3458 33.2595 37.3458ZM28.4074 37.3458C28.0414 37.3458 27.7286 37.216 27.4688 36.9563C27.2091 36.6965 27.0793 36.3837 27.0793 36.0177V31.8563C27.0793 31.4903 27.2091 31.1774 27.4688 30.9177C27.7286 30.658 28.0414 30.5281 28.4074 30.5281C28.7734 30.5281 29.0862 30.658 29.3459 30.9177C29.6057 31.1774 29.7355 31.4903 29.7355 31.8563V36.0177C29.7355 36.3837 29.6057 36.6965 29.3459 36.9563C29.0862 37.216 28.7734 37.3458 28.4074 37.3458ZM38.1293 37.3458C37.7633 37.3458 37.4504 37.216 37.1907 36.9563C36.931 36.6965 36.8011 36.3837 36.8011 36.0177V33.2375C36.8011 32.8715 36.931 32.5587 37.1907 32.299C37.4504 32.0392 37.7633 31.9094 38.1293 31.9094C38.4952 31.9094 38.8081 32.0392 39.0678 32.299C39.3275 32.5587 39.4574 32.8715 39.4574 33.2375V36.0177C39.4574 36.3837 39.3275 36.6965 39.0678 36.9563C38.8081 37.216 38.4952 37.3458 38.1293 37.3458ZM33.2418 44.2875C30.1723 44.2875 27.5662 43.2161 25.4235 41.0734C23.2808 38.9307 22.2095 36.3188 22.2095 33.2375C22.2095 30.1563 23.2808 27.5443 25.4235 25.4016C27.5662 23.2589 30.1723 22.1875 33.2418 22.1875C36.323 22.1875 38.9379 23.2589 41.0865 25.4016C43.2352 27.5443 44.3095 30.1563 44.3095 33.2375C44.3095 34.5361 44.1029 35.7639 43.6897 36.9208C43.2765 38.0778 42.698 39.1285 41.9543 40.0729L48.8959 47.0323C49.1438 47.2802 49.2707 47.5842 49.2767 47.9443C49.2826 48.3043 49.1556 48.6142 48.8959 48.874C48.6362 49.1337 48.3263 49.2635 47.9662 49.2635C47.6062 49.2635 47.2963 49.1337 47.0365 48.874L40.0949 41.9323C39.1504 42.676 38.0968 43.2545 36.9339 43.6677C35.7711 44.0809 34.5404 44.2875 33.2418 44.2875Z" fill="#EDF5FF"/>
</g>
</svg>
