<svg width="72" height="72" viewBox="0 0 72 72" fill="none" xmlns="http://www.w3.org/2000/svg">
<rect width="72" height="72" rx="20" fill="white" fill-opacity="0.04"/>
<mask id="mask0_2346_3228" style="mask-type:alpha" maskUnits="userSpaceOnUse" x="19" y="19" width="34" height="34">
<rect x="19" y="19" width="34" height="34" fill="#D9D9D9"/>
</mask>
<g mask="url(#mask0_2346_3228)">
<path d="M36.0033 50.1654C35.3894 50.1654 34.8345 50.0178 34.3387 49.7227C33.8428 49.4275 33.4533 49.032 33.1699 48.5362C32.3908 48.5362 31.7237 48.2588 31.1689 47.7039C30.614 47.1491 30.3366 46.482 30.3366 45.7029V40.6737C28.9435 39.7529 27.8279 38.5369 26.9897 37.0258C26.1515 35.5147 25.7324 33.8737 25.7324 32.1029C25.7324 29.2459 26.73 26.8199 28.7251 24.8247C30.7203 22.8296 33.1463 21.832 36.0033 21.832C38.8602 21.832 41.2862 22.8296 43.2814 24.8247C45.2765 26.8199 46.2741 29.2459 46.2741 32.1029C46.2741 33.9209 45.855 35.5737 45.0168 37.0612C44.1786 38.5487 43.063 39.7529 41.6699 40.6737V45.7029C41.6699 46.482 41.3925 47.1491 40.8376 47.7039C40.2828 48.2588 39.6158 48.5362 38.8366 48.5362C38.5533 49.032 38.1637 49.4275 37.6678 49.7227C37.172 50.0178 36.6171 50.1654 36.0033 50.1654ZM33.1699 45.7029H38.8366V44.4279H33.1699V45.7029ZM33.1699 43.0112H38.8366V41.6654H33.1699V43.0112ZM37.0658 38.832V35.007L39.4387 32.6341C39.6512 32.4216 39.7574 32.1737 39.7574 31.8904C39.7574 31.607 39.6512 31.3591 39.4387 31.1466C39.2262 30.9341 38.9783 30.8279 38.6949 30.8279C38.4116 30.8279 38.1637 30.9341 37.9512 31.1466L36.0033 33.0945L34.0553 31.1466C33.8428 30.9341 33.5949 30.8279 33.3116 30.8279C33.0283 30.8279 32.7803 30.9341 32.5678 31.1466C32.3553 31.3591 32.2491 31.607 32.2491 31.8904C32.2491 32.1737 32.3553 32.4216 32.5678 32.6341L34.9408 35.007V38.832H37.0658Z" fill="#EDF5FF"/>
</g>
</svg>
