<svg width="56" height="56" viewBox="0 0 56 56" fill="none" xmlns="http://www.w3.org/2000/svg">
<mask id="mask0_2356_3415" style="mask-type:alpha" maskUnits="userSpaceOnUse" x="0" y="0" width="56" height="56">
<rect width="56" height="56" fill="#D9D9D9"/>
</mask>
<g mask="url(#mask0_2356_3415)">
<path d="M43.9832 51.2757C43.6721 51.2757 43.3804 51.227 43.1082 51.1298C42.836 51.0326 42.5832 50.8673 42.3498 50.634L30.4498 38.734C30.2165 38.5007 30.0512 38.2479 29.954 37.9757C29.8568 37.7034 29.8082 37.4118 29.8082 37.1007C29.8082 36.7895 29.8568 36.4979 29.954 36.2257C30.0512 35.9534 30.2165 35.7006 30.4498 35.4673L35.4082 30.509C35.6415 30.2757 35.8943 30.1104 36.1665 30.0132C36.4387 29.9159 36.7304 29.8673 37.0415 29.8673C37.3526 29.8673 37.6443 29.9159 37.9165 30.0132C38.1887 30.1104 38.4415 30.2757 38.6748 30.509L50.5748 42.409C50.8082 42.6423 50.9735 42.8951 51.0707 43.1673C51.1679 43.4395 51.2165 43.7312 51.2165 44.0423C51.2165 44.3534 51.1679 44.6451 51.0707 44.9173C50.9735 45.1895 50.8082 45.4423 50.5748 45.6757L45.6165 50.634C45.3832 50.8673 45.1304 51.0326 44.8582 51.1298C44.586 51.227 44.2943 51.2757 43.9832 51.2757ZM11.9582 51.334C11.6471 51.334 11.3457 51.2757 11.054 51.159C10.7623 51.0423 10.4998 50.8673 10.2665 50.634L5.3665 45.734C5.13317 45.5007 4.95817 45.2382 4.8415 44.9465C4.72484 44.6548 4.6665 44.3534 4.6665 44.0423C4.6665 43.7312 4.72484 43.4395 4.8415 43.1673C4.95817 42.8951 5.13317 42.6423 5.3665 42.409L17.7332 30.0423H22.6915L24.6748 28.059L15.0498 18.434H11.7248L4.6665 11.3757L11.2582 4.78398L18.3165 11.8423V15.1673L27.9415 24.7923L34.7082 18.0257L32.1998 15.5173L35.4665 12.2507H28.8748L27.2415 10.6173L35.5248 2.33398L37.1582 3.96732V10.559L40.4248 7.29232L48.7082 15.5757C49.3693 16.2368 49.8748 16.9854 50.2248 17.8215C50.5748 18.6576 50.7498 19.5423 50.7498 20.4757C50.7498 21.409 50.5748 22.3034 50.2248 23.159C49.8748 24.0145 49.3693 24.7729 48.7082 25.434L43.7498 20.4757L40.4832 23.7423L38.0332 21.2923L25.9582 33.3673V38.2673L13.5915 50.634C13.3582 50.8673 13.1054 51.0423 12.8332 51.159C12.5609 51.2757 12.2693 51.334 11.9582 51.334Z" fill="#EDF5FF"/>
</g>
</svg>
