<svg width="26" height="26" viewBox="0 0 26 26" fill="none" xmlns="http://www.w3.org/2000/svg">
<path d="M2.33333 1V0H1.33333V1H2.33333ZM23.6667 1H24.6667V0H23.6667V1ZM5.60632 11.6075C5.22711 12.009 5.24519 12.6419 5.64671 13.0211C6.04823 13.4003 6.68113 13.3823 7.06035 12.9807L5.60632 11.6075ZM10.3333 8.05882L11.0603 7.3722C10.8714 7.17218 10.6085 7.05882 10.3333 7.05882C10.0582 7.05882 9.79523 7.17218 9.60632 7.3722L10.3333 8.05882ZM14.3333 12.2941L13.6063 12.9807C13.7952 13.1808 14.0582 13.2941 14.3333 13.2941C14.6085 13.2941 14.8714 13.1808 15.0603 12.9807L14.3333 12.2941ZM20.3937 7.33368C20.7729 6.93216 20.7548 6.29926 20.3533 5.92005C19.9518 5.54083 19.3189 5.55892 18.9397 5.96044L20.3937 7.33368ZM6.93965 24.3134C6.56044 24.7149 6.57853 25.3478 6.98004 25.727C7.38156 26.1062 8.01447 26.0881 8.39368 25.6866L6.93965 24.3134ZM13 19.3529L13.727 18.6663C13.5381 18.4663 13.2751 18.3529 13 18.3529C12.7249 18.3529 12.4619 18.4663 12.273 18.6663L13 19.3529ZM17.6063 25.6866C17.9855 26.0881 18.6184 26.1062 19.02 25.727C19.4215 25.3478 19.4396 24.7149 19.0603 24.3134L17.6063 25.6866ZM1 0C0.447715 0 0 0.447715 0 1C0 1.55228 0.447715 2 1 2V0ZM25 2C25.5523 2 26 1.55228 26 1C26 0.447715 25.5523 0 25 0V2ZM2.33333 2H23.6667V0H2.33333V2ZM22.6667 1V17.9412H24.6667V1H22.6667ZM22.3333 18.3529H3.66667V20.3529H22.3333V18.3529ZM3.33333 17.9412V1H1.33333V17.9412H3.33333ZM3.66667 18.3529C3.53566 18.3529 3.33333 18.2232 3.33333 17.9412H1.33333C1.33333 19.2185 2.32492 20.3529 3.66667 20.3529V18.3529ZM22.6667 17.9412C22.6667 18.2232 22.4643 18.3529 22.3333 18.3529V20.3529C23.6751 20.3529 24.6667 19.2185 24.6667 17.9412H22.6667ZM7.06035 12.9807L11.0603 8.74545L9.60632 7.3722L5.60632 11.6075L7.06035 12.9807ZM9.60632 8.74545L13.6063 12.9807L15.0603 11.6075L11.0603 7.3722L9.60632 8.74545ZM15.0603 12.9807L20.3937 7.33368L18.9397 5.96044L13.6063 11.6075L15.0603 12.9807ZM8.39368 25.6866L13.727 20.0396L12.273 18.6663L6.93965 24.3134L8.39368 25.6866ZM12.273 20.0396L17.6063 25.6866L19.0603 24.3134L13.727 18.6663L12.273 20.0396ZM1 2H25V0H1V2Z" fill="#EDF5FF"/>
</svg>
