<svg width="24" height="30" viewBox="0 0 24 30" fill="none" xmlns="http://www.w3.org/2000/svg">
<path d="M7.92933 17.404C7.53881 17.0135 6.90564 17.0135 6.51512 17.404C6.12459 17.7945 6.12459 18.4277 6.51512 18.8182L7.92933 17.404ZM10.3333 21.2222L9.62623 21.9293C10.0168 22.3199 10.6499 22.3199 11.0404 21.9293L10.3333 21.2222ZM17.2627 15.7071C17.6532 15.3166 17.6532 14.6834 17.2627 14.2929C16.8721 13.9024 16.239 13.9024 15.8484 14.2929L17.2627 15.7071ZM21.7778 7.22222V25.8889H23.7778V7.22222H21.7778ZM19.6667 28H4.11111V30H19.6667V28ZM2 25.8889V7.22222H0V25.8889H2ZM4.11111 5.11111H7.22222V3.11111H4.11111V5.11111ZM16.5556 5.11111H19.6667V3.11111H16.5556V5.11111ZM4.11111 28C2.94518 28 2 27.0548 2 25.8889H0C0 28.1594 1.84061 30 4.11111 30V28ZM21.7778 25.8889C21.7778 27.0548 20.8326 28 19.6667 28V30C21.9372 30 23.7778 28.1594 23.7778 25.8889H21.7778ZM23.7778 7.22222C23.7778 4.95172 21.9372 3.11111 19.6667 3.11111V5.11111C20.8326 5.11111 21.7778 6.05629 21.7778 7.22222H23.7778ZM2 7.22222C2 6.05629 2.94518 5.11111 4.11111 5.11111V3.11111C1.84061 3.11111 0 4.95172 0 7.22222H2ZM6.51512 18.8182L9.62623 21.9293L11.0404 20.5151L7.92933 17.404L6.51512 18.8182ZM11.0404 21.9293L17.2627 15.7071L15.8484 14.2929L9.62623 20.5151L11.0404 21.9293ZM10.3333 2H13.4444V0H10.3333V2ZM13.4444 6.22222H10.3333V8.22222H13.4444V6.22222ZM10.3333 6.22222C9.1674 6.22222 8.22222 5.27705 8.22222 4.11111H6.22222C6.22222 6.38162 8.06283 8.22222 10.3333 8.22222V6.22222ZM15.5556 4.11111C15.5556 5.27705 14.6104 6.22222 13.4444 6.22222V8.22222C15.7149 8.22222 17.5556 6.38162 17.5556 4.11111H15.5556ZM13.4444 2C14.6104 2 15.5556 2.94518 15.5556 4.11111H17.5556C17.5556 1.84061 15.7149 0 13.4444 0V2ZM10.3333 0C8.06283 0 6.22222 1.84061 6.22222 4.11111H8.22222C8.22222 2.94518 9.1674 2 10.3333 2V0Z" fill="#EDF5FF"/>
</svg>
