<svg width="42" height="44" viewBox="0 0 42 44" fill="none" xmlns="http://www.w3.org/2000/svg">
<g clip-path="url(#clip0_5475_345)">
<path d="M21.3123 23.8722L19.058 25.1738C17.5826 23.3931 15.493 22.1391 13.1173 21.7388V19.1406H9.83609V21.7388C7.46047 22.1391 5.37086 23.3931 3.89539 25.1732L1.64117 23.8716L0 26.7138L2.25039 28.0131C1.85117 29.0823 1.63242 30.2389 1.63242 31.4453C1.63242 32.6517 1.85117 33.8084 2.25039 34.8775L0 36.1769L1.64062 39.0184L3.89484 37.7169C5.37031 39.4975 7.45992 40.7509 9.83555 41.1512V43.75H13.1168V41.1518C15.4924 40.7515 17.582 39.4975 19.0575 37.7169L21.3117 39.0184L22.9523 36.1769L20.702 34.8775C21.1012 33.8084 21.3199 32.6517 21.3199 31.4453C21.3199 30.2389 21.1012 29.0823 20.702 28.0131L22.9523 26.7138L21.3117 23.8722H21.3123ZM11.4762 35.5545C9.21047 35.5545 7.36695 33.711 7.36695 31.4453C7.36695 29.1796 9.21047 27.3361 11.4762 27.3361C13.7419 27.3361 15.5854 29.1796 15.5854 31.4453C15.5854 33.711 13.7419 35.5545 11.4762 35.5545Z" fill="#93C7EF"/>
<path d="M21.3205 31.4459C21.3205 30.2395 21.1017 29.0828 20.7025 28.0137L22.9529 26.7143L21.3123 23.8727L19.058 25.1743C17.5826 23.3937 15.493 22.1397 13.1173 21.7394V19.1406H11.5391V27.3372C13.7763 27.3711 15.5859 29.1998 15.5859 31.4453C15.5859 33.6908 13.7763 35.5195 11.5391 35.5534V43.75H13.1173V41.1518C15.493 40.7515 17.5826 39.4975 19.058 37.7169L21.3123 39.0184L22.9529 36.1769L20.7025 34.8775C21.1017 33.8084 21.3205 32.6517 21.3205 31.4453V31.4459Z" fill="#78B9EB"/>
<path d="M13.3828 15.7763L15.6852 14.4473C16.622 15.4388 17.8398 16.1612 19.2103 16.4866V19.1406H22.4916V16.4866C23.862 16.1612 25.0799 15.4388 26.0167 14.4473L28.3191 15.7763L29.9597 12.9347L27.6617 11.608C27.8553 10.9621 27.9609 10.2785 27.9609 9.57031C27.9609 8.86211 27.8553 8.17852 27.6617 7.53266L29.9597 6.20594L28.3191 3.36438L26.0167 4.69328C25.0799 3.7018 23.862 2.97937 22.4916 2.65398V0H19.2103V2.65398C17.8398 2.97937 16.622 3.7018 15.6852 4.69328L13.3828 3.36438L11.7422 6.20594L14.0402 7.53266C13.8466 8.17852 13.741 8.86211 13.741 9.57031C13.741 10.2785 13.8466 10.9621 14.0402 11.608L11.7422 12.9347L13.3828 15.7763ZM22.491 9.57031C22.491 10.4765 21.7566 11.2109 20.8504 11.2109C19.9442 11.2109 19.2098 10.4765 19.2098 9.57031C19.2098 8.66414 19.9442 7.92969 20.8504 7.92969C21.7566 7.92969 22.491 8.66414 22.491 9.57031Z" fill="#FFC170"/>
<path d="M27.9601 9.57031C27.9601 8.86211 27.8546 8.17852 27.661 7.53266L29.959 6.20594L28.3183 3.36438L26.016 4.69328C25.0792 3.7018 23.8613 2.97937 22.4908 2.65398V0H20.9448V7.93461C21.8067 7.98383 22.4908 8.69641 22.4908 9.57031C22.4908 10.4442 21.8067 11.1568 20.9448 11.206V19.1406H22.4908V16.4866C23.8613 16.1612 25.0792 15.4388 26.016 14.4473L28.3183 15.7763L29.959 12.9347L27.661 11.608C27.8546 10.9621 27.9601 10.2785 27.9601 9.57031Z" fill="#FF9811"/>
<path d="M39.081 24.6094C39.081 24.1516 39.0257 23.7065 38.9235 23.2794L41.263 21.9286L39.6224 19.087L37.2801 20.4395C36.6353 19.8297 35.8506 19.3676 34.9794 19.1073V16.4062H31.6981V19.1073C30.8264 19.3676 30.0417 19.8297 29.3974 20.4395L27.0552 19.087L25.4146 21.9286L27.7541 23.2794C27.6524 23.7065 27.5971 24.1516 27.5971 24.6094C27.5971 25.0671 27.6524 25.5123 27.7541 25.9394L25.4146 27.2902L27.0552 30.1317L29.3974 28.7793C30.0422 29.3891 30.827 29.8512 31.6981 30.1115V32.8125H34.9794V30.1115C35.8511 29.8512 36.6359 29.3891 37.2801 28.7793L39.6224 30.1317L41.263 27.2902L38.9235 25.9394C39.0252 25.5123 39.081 25.0671 39.081 24.6094ZM34.9794 24.6094C34.9794 25.5155 34.2449 26.25 33.3388 26.25C32.4326 26.25 31.6981 25.5155 31.6981 24.6094C31.6981 23.7032 32.4326 22.9688 33.3388 22.9688C34.2449 22.9688 34.9794 23.7032 34.9794 24.6094Z" fill="#0052B4"/>
<path d="M39.0807 24.6094C39.0807 24.1516 39.0255 23.7065 38.9232 23.2794L41.2628 21.9286L39.6221 19.087L37.2799 20.4395C36.6351 19.8297 35.8503 19.3676 34.9792 19.1073V16.4062H33.3052V22.9704C33.3167 22.9704 33.3276 22.9688 33.3391 22.9688C34.2453 22.9688 34.9797 23.7032 34.9797 24.6094C34.9797 25.5155 34.2453 26.25 33.3391 26.25C33.3276 26.25 33.3167 26.2484 33.3052 26.2484V32.8125H34.9797V30.1115C35.8514 29.8512 36.6362 29.3891 37.2804 28.7793L39.6227 30.1317L41.2633 27.2902L38.9238 25.9394C39.0255 25.5123 39.0813 25.0671 39.0813 24.6094H39.0807Z" fill="#003778"/>
</g>
<defs>
<clipPath id="clip0_5475_345">
<rect width="41.2628" height="43.75" fill="white"/>
</clipPath>
</defs>
</svg>
