<svg width="56" height="56" viewBox="0 0 56 56" fill="none" xmlns="http://www.w3.org/2000/svg">
<path d="M7.96738 36.6557L21.922 12.7656C23.6946 13.8092 32.6329 18.7559 34.0764 19.6965L20.1218 43.5881C18.5957 45.6041 6.03391 39.7153 7.96738 36.6542V36.6557Z" fill="#FBBC04"/>
<path d="M48.0612 36.655L34.1066 12.7664C32.1558 9.5198 27.954 8.34001 24.5031 10.2575C21.0521 12.1751 20.0013 16.3058 21.9522 19.6973L35.9067 43.5888C37.8576 46.834 42.0593 48.0138 45.5103 46.0963C48.8105 44.1787 50.0121 39.9016 48.0612 36.6579V36.655Z" fill="#4285F4"/>
<path d="M14.0048 47.0192C17.8735 47.0192 21.0097 43.9609 21.0097 40.1883C21.0097 36.4157 17.8735 33.3574 14.0048 33.3574C10.1362 33.3574 7 36.4157 7 40.1883C7 43.9609 10.1362 47.0192 14.0048 47.0192Z" fill="#34A853"/>
</svg>
