<svg width="27" height="42" viewBox="0 0 27 42" fill="none" xmlns="http://www.w3.org/2000/svg">
<g clip-path="url(#clip0_5475_3378)">
<path d="M12.9365 3.28915e-06C11.58 0.000528637 10.3339 0.74915 9.69664 1.94642C9.05886 3.14369 9.13346 4.59522 9.88997 5.72104L11.4587 4.15498C11.4066 3.99895 11.3809 3.83504 11.3814 3.67061C11.3814 2.81534 12.0749 2.12188 12.9302 2.12188C13.7854 2.12188 14.4789 2.81534 14.4789 3.67061C14.4789 4.52588 13.7854 5.21934 12.9302 5.21934C12.7662 5.21934 12.6034 5.19359 12.4479 5.14211L10.8818 6.70817C12.1863 7.59286 13.9099 7.5461 15.1639 6.59155C16.4185 5.63751 16.9233 3.98897 16.419 2.49593C15.9147 1.00289 14.5125 -0.0020981 12.9365 3.28915e-06Z" fill="#34A853"/>
<path d="M11.477 10.6957C11.4796 9.45587 11.0777 8.24914 10.3333 7.25781L8.29812 9.29091C8.93484 10.4551 8.70579 11.9024 7.74072 12.8128L8.84711 15.5163C10.4862 14.4609 11.477 12.6453 11.4775 10.6957H11.477Z" fill="#FBBC04"/>
<path d="M5.78862 13.6153H5.73556C4.48733 13.6153 3.37675 12.8221 2.97223 11.6411C2.56771 10.4601 2.9591 9.15251 3.9457 8.3876C4.9323 7.62269 6.29611 7.56963 7.33945 8.25521L9.35469 6.23998C7.39514 4.65133 4.6276 4.52839 2.53514 5.9379C0.442678 7.34689 -0.484036 9.95734 0.251977 12.3708C0.987465 14.7842 3.21284 16.4338 5.73609 16.4359C6.12537 16.4359 6.5136 16.3976 6.89553 16.3209L5.78915 13.6153H5.78862Z" fill="#EA4335"/>
<path d="M13.0146 15.9527C11.7406 15.9517 10.4734 16.1371 9.25359 16.5038L10.8664 20.4439C11.5683 20.2701 12.2891 20.1823 13.0125 20.1828C17.2032 20.1839 20.8097 23.1453 21.6266 27.2561C22.4435 31.3665 20.2428 35.4815 16.3705 37.0849C12.4981 38.6882 8.03321 37.3328 5.70486 33.8482C3.37704 30.3636 3.83462 25.7195 6.79811 22.756C7.41645 22.1398 8.12251 21.6176 8.8932 21.2073L7.29824 17.2782C1.35235 20.1897 -1.46299 27.0991 0.754507 33.337C2.972 39.575 9.51679 43.1568 15.9665 41.6622C22.4162 40.1676 26.7177 34.072 25.9654 27.4946C25.2131 20.9173 19.646 15.9506 13.0256 15.9512L13.0146 15.9533V15.9527Z" fill="#4285F4"/>
</g>
<defs>
<clipPath id="clip0_5475_3378">
<rect width="26.0504" height="42" fill="white"/>
</clipPath>
</defs>
</svg>
