<svg width="56" height="56" viewBox="0 0 56 56" fill="none" xmlns="http://www.w3.org/2000/svg">
<mask id="mask0_2356_3419" style="mask-type:alpha" maskUnits="userSpaceOnUse" x="0" y="0" width="56" height="56">
<rect width="56" height="56" fill="#D9D9D9"/>
</mask>
<g mask="url(#mask0_2356_3419)">
<path d="M44.5661 12.6L43.9244 14.4083C43.8466 14.6417 43.7105 14.8264 43.5161 14.9625C43.3216 15.0986 43.1077 15.1667 42.8744 15.1667C42.4466 15.1667 42.1161 15.0111 41.8827 14.7C41.6494 14.3889 41.6105 14.0389 41.7661 13.65L45.0911 4.31667C45.1689 4.08333 45.3147 3.88889 45.5286 3.73333C45.7425 3.57778 45.9855 3.5 46.2577 3.5H47.0744C47.3466 3.5 47.5897 3.57778 47.8036 3.73333C48.0175 3.88889 48.1633 4.08333 48.2411 4.31667L51.5661 13.5917C51.7216 13.9806 51.6925 14.3403 51.4786 14.6708C51.2647 15.0014 50.9439 15.1667 50.5161 15.1667C50.2439 15.1667 50.0008 15.0889 49.7869 14.9333C49.573 14.7778 49.4272 14.5833 49.3494 14.35L48.7661 12.6H44.5661ZM13.0661 51.275C11.7827 51.4305 10.6355 51.1194 9.62441 50.3417C8.6133 49.5639 8.02997 48.5333 7.87441 47.25L4.66608 21.7583C4.47163 20.5139 4.77302 19.3861 5.57024 18.375C6.36747 17.3639 7.42719 16.7611 8.74941 16.5667L11.6661 16.2167V37.3333C11.6661 39.3167 12.3369 40.9792 13.6786 42.3208C15.0202 43.6625 16.6827 44.3333 18.6661 44.3333H42.5827C42.5827 45.3833 42.1744 46.2389 41.3577 46.9C40.5411 47.5611 39.6077 47.9694 38.5577 48.125L13.0661 51.275ZM20.9994 39.6667C19.6772 39.6667 18.5689 39.2194 17.6744 38.325C16.78 37.4305 16.3327 36.3222 16.3327 35V9.33333C16.3327 8.05 16.78 6.95139 17.6744 6.0375C18.5689 5.12361 19.6772 4.66667 20.9994 4.66667H32.2577C32.88 4.66667 33.3758 4.90972 33.7452 5.39583C34.1147 5.88194 34.2216 6.43611 34.0661 7.05833C33.8716 8.03055 33.7841 9.0125 33.8036 10.0042C33.823 10.9958 33.9883 11.9389 34.2994 12.8333H33.8327C32.0439 12.8333 30.5272 13.4653 29.2827 14.7292C28.0383 15.9931 27.4161 17.5 27.4161 19.25C27.4161 21.0389 28.0383 22.5556 29.2827 23.8C30.5272 25.0444 32.0439 25.6667 33.8327 25.6667C35.3883 25.6667 36.7494 25.1806 37.9161 24.2083C39.0827 23.2361 39.8216 21.9722 40.1327 20.4167C41.4939 21.2333 42.9619 21.7778 44.5369 22.05C46.1119 22.3222 47.6772 22.2833 49.2327 21.9333C49.7772 21.8167 50.2633 21.9042 50.6911 22.1958C51.1189 22.4875 51.3327 22.9056 51.3327 23.45V35C51.3327 36.3222 50.8758 37.4305 49.9619 38.325C49.048 39.2194 47.9494 39.6667 46.6661 39.6667H20.9994ZM20.9994 35H46.6661V33.1333C44.9161 31.5 42.9327 30.2361 40.7161 29.3417C38.4994 28.4472 36.205 28 33.8327 28C31.4216 28 29.1175 28.4472 26.9202 29.3417C24.723 30.2361 22.7494 31.5 20.9994 33.1333V35ZM45.1494 10.85H48.1827L46.6661 6.06667L45.1494 10.85Z" fill="#EDF5FF"/>
</g>
</svg>
