<svg width="56" height="56" viewBox="0 0 56 56" fill="none" xmlns="http://www.w3.org/2000/svg">
<mask id="mask0_2356_3429" style="mask-type:alpha" maskUnits="userSpaceOnUse" x="0" y="0" width="56" height="56">
<rect width="56" height="56" fill="#D9D9D9"/>
</mask>
<g mask="url(#mask0_2356_3429)">
<path d="M23.3332 37.3327C27.2221 37.3327 30.5276 35.9716 33.2498 33.2494C35.9721 30.5271 37.3332 27.2216 37.3332 23.3327C37.3332 19.4438 35.9721 16.1382 33.2498 13.416C30.5276 10.6938 27.2221 9.33268 23.3332 9.33268C19.4443 9.33268 16.1387 10.6938 13.4165 13.416C10.6943 16.1382 9.33317 19.4438 9.33317 23.3327C9.33317 27.2216 10.6943 30.5271 13.4165 33.2494C16.1387 35.9716 19.4443 37.3327 23.3332 37.3327ZM23.3332 30.3327C22.6721 30.3327 22.1179 30.1091 21.6707 29.6619C21.2234 29.2146 20.9998 28.6605 20.9998 27.9994V16.3327C20.9998 15.6716 21.2234 15.1174 21.6707 14.6702C22.1179 14.223 22.6721 13.9993 23.3332 13.9993C23.9943 13.9993 24.5485 14.223 24.9957 14.6702C25.4429 15.1174 25.6665 15.6716 25.6665 16.3327V27.9994C25.6665 28.6605 25.4429 29.2146 24.9957 29.6619C24.5485 30.1091 23.9943 30.3327 23.3332 30.3327ZM15.1665 30.3327C14.5054 30.3327 13.9512 30.1091 13.504 29.6619C13.0568 29.2146 12.8332 28.6605 12.8332 27.9994V20.9993C12.8332 20.3382 13.0568 19.7841 13.504 19.3369C13.9512 18.8896 14.5054 18.666 15.1665 18.666C15.8276 18.666 16.3818 18.8896 16.829 19.3369C17.2762 19.7841 17.4998 20.3382 17.4998 20.9993V27.9994C17.4998 28.6605 17.2762 29.2146 16.829 29.6619C16.3818 30.1091 15.8276 30.3327 15.1665 30.3327ZM31.4998 30.3327C30.8387 30.3327 30.2846 30.1091 29.8373 29.6619C29.3901 29.2146 29.1665 28.6605 29.1665 27.9994V23.3327C29.1665 22.6716 29.3901 22.1174 29.8373 21.6702C30.2846 21.223 30.8387 20.9993 31.4998 20.9993C32.1609 20.9993 32.7151 21.223 33.1623 21.6702C33.6096 22.1174 33.8332 22.6716 33.8332 23.3327V27.9994C33.8332 28.6605 33.6096 29.2146 33.1623 29.6619C32.7151 30.1091 32.1609 30.3327 31.4998 30.3327ZM23.3332 41.9994C18.1221 41.9994 13.7082 40.191 10.0915 36.5744C6.47484 32.9577 4.6665 28.5438 4.6665 23.3327C4.6665 18.1216 6.47484 13.7077 10.0915 10.091C13.7082 6.47435 18.1221 4.66602 23.3332 4.66602C28.5443 4.66602 32.9582 6.47435 36.5748 10.091C40.1915 13.7077 41.9998 18.1216 41.9998 23.3327C41.9998 25.5105 41.6596 27.5716 40.979 29.516C40.2985 31.4605 39.3359 33.2299 38.0915 34.8244L49.6998 46.4327C50.1276 46.8605 50.3415 47.4049 50.3415 48.066C50.3415 48.7271 50.1276 49.2716 49.6998 49.6994C49.2721 50.1271 48.7276 50.341 48.0665 50.341C47.4054 50.341 46.861 50.1271 46.4332 49.6994L34.8248 38.091C33.2304 39.3355 31.461 40.298 29.5165 40.9785C27.5721 41.6591 25.511 41.9994 23.3332 41.9994Z" fill="#EDF5FF"/>
</g>
</svg>
