<svg width="56" height="56" viewBox="0 0 56 56" fill="none" xmlns="http://www.w3.org/2000/svg">
<mask id="mask0_2356_3378" style="mask-type:alpha" maskUnits="userSpaceOnUse" x="0" y="0" width="56" height="56">
<rect width="56" height="56" fill="#D9D9D9"/>
</mask>
<g mask="url(#mask0_2356_3378)">
<path d="M42 45.3246L39.9 47.4246C39.4722 47.8524 38.9375 48.0663 38.2958 48.0663C37.6542 48.0663 37.1 47.8329 36.6333 47.3663C36.2056 46.9385 35.9917 46.3941 35.9917 45.7329C35.9917 45.0718 36.2056 44.5274 36.6333 44.0996L38.675 41.9996L36.6333 39.9579C36.2056 39.5302 35.9917 38.9954 35.9917 38.3538C35.9917 37.7121 36.2056 37.1579 36.6333 36.6913C37.1 36.2246 37.6542 35.9913 38.2958 35.9913C38.9375 35.9913 39.4917 36.2246 39.9583 36.6913L42 38.7329L44.0417 36.6329C44.4694 36.1663 45.0042 35.9329 45.6458 35.9329C46.2875 35.9329 46.8417 36.1663 47.3083 36.6329C47.775 37.0996 48.0083 37.6538 48.0083 38.2954C48.0083 38.9371 47.775 39.4913 47.3083 39.9579L45.2667 41.9996L47.3667 44.0996C47.8333 44.5663 48.0569 45.1107 48.0375 45.7329C48.0181 46.3552 47.775 46.8996 47.3083 47.3663C46.8417 47.7941 46.2972 48.0177 45.675 48.0371C45.0528 48.0566 44.5083 47.8329 44.0417 47.3663L42 45.3246ZM14 44.3329C14.6611 44.3329 15.2153 44.1093 15.6625 43.6621C16.1097 43.2149 16.3333 42.6607 16.3333 41.9996C16.3333 41.3385 16.1097 40.7843 15.6625 40.3371C15.2153 39.8899 14.6611 39.6663 14 39.6663C13.3389 39.6663 12.7847 39.8899 12.3375 40.3371C11.8903 40.7843 11.6667 41.3385 11.6667 41.9996C11.6667 42.6607 11.8903 43.2149 12.3375 43.6621C12.7847 44.1093 13.3389 44.3329 14 44.3329ZM14 48.9996C12.0556 48.9996 10.4028 48.3191 9.04167 46.9579C7.68056 45.5968 7 43.9441 7 41.9996C7 40.0552 7.68056 38.4024 9.04167 37.0413C10.4028 35.6802 12.0556 34.9996 14 34.9996C15.4389 34.9996 16.7514 35.3982 17.9375 36.1954C19.1236 36.9927 19.9889 38.0718 20.5333 39.4329C22.05 39.0052 23.2847 38.1691 24.2375 36.9246C25.1903 35.6802 25.6667 34.2607 25.6667 32.6663V23.3329C25.6667 20.1052 26.8042 17.3538 29.0792 15.0788C31.3542 12.8038 34.1056 11.6663 37.3333 11.6663H40.0167L37.975 9.62461C37.5083 9.15794 37.2847 8.60378 37.3042 7.96211C37.3236 7.32044 37.5667 6.76628 38.0333 6.29961C38.5 5.83294 39.0542 5.59961 39.6958 5.59961C40.3375 5.59961 40.8917 5.83294 41.3583 6.29961L47.3667 12.3663C47.8333 12.8329 48.0667 13.3774 48.0667 13.9996C48.0667 14.6218 47.8333 15.1663 47.3667 15.6329L41.3 21.6996C40.8722 22.1274 40.3375 22.351 39.6958 22.3704C39.0542 22.3899 38.5 22.1663 38.0333 21.6996C37.5667 21.2718 37.3333 20.7274 37.3333 20.0663C37.3333 19.4052 37.5472 18.8413 37.975 18.3746L40.0167 16.3329H37.3333C35.3889 16.3329 33.7361 17.0135 32.375 18.3746C31.0139 19.7357 30.3333 21.3885 30.3333 23.3329V32.6663C30.3333 35.5052 29.4194 38.0038 27.5917 40.1621C25.7639 42.3204 23.45 43.6524 20.65 44.1579C20.1833 45.5968 19.3375 46.7635 18.1125 47.6579C16.8875 48.5524 15.5167 48.9996 14 48.9996ZM14 17.3246L11.9 19.4246C11.4722 19.8524 10.9375 20.0663 10.2958 20.0663C9.65417 20.0663 9.1 19.8329 8.63333 19.3663C8.20556 18.9385 7.99167 18.3941 7.99167 17.7329C7.99167 17.0718 8.20556 16.5274 8.63333 16.0996L10.675 13.9996L8.63333 11.9579C8.20556 11.5302 7.99167 10.9954 7.99167 10.3538C7.99167 9.71211 8.20556 9.15794 8.63333 8.69128C9.1 8.22461 9.65417 7.99128 10.2958 7.99128C10.9375 7.99128 11.4917 8.22461 11.9583 8.69128L14 10.7329L16.0417 8.63294C16.4694 8.16628 17.0042 7.93294 17.6458 7.93294C18.2875 7.93294 18.8417 8.16628 19.3083 8.63294C19.775 9.09961 20.0083 9.65378 20.0083 10.2954C20.0083 10.9371 19.775 11.4913 19.3083 11.9579L17.2667 13.9996L19.3667 16.0996C19.8333 16.5663 20.0569 17.1107 20.0375 17.7329C20.0181 18.3552 19.775 18.8996 19.3083 19.3663C18.8417 19.7941 18.2972 20.0177 17.675 20.0371C17.0528 20.0566 16.5083 19.8329 16.0417 19.3663L14 17.3246Z" fill="#EDF5FF"/>
</g>
</svg>
