<svg width="20" height="20" viewBox="0 0 20 20" fill="none" xmlns="http://www.w3.org/2000/svg">
<path d="M18.3332 3.33203C17.6832 3.71786 16.379 4.2437 15.6123 4.39536C15.5898 4.4012 15.5715 4.4087 15.5498 4.41453C14.8723 3.7462 13.944 3.33203 12.9165 3.33203C10.8457 3.33203 9.1665 5.0112 9.1665 7.08203C9.1665 7.1912 9.15734 7.39203 9.1665 7.4987C6.37234 7.4987 4.24567 6.03536 2.72067 4.16536C2.55484 4.58203 2.48234 5.24036 2.48234 5.8587C2.48234 7.0262 3.39484 8.17287 4.81567 8.8837C4.554 8.9512 4.26567 8.99953 3.96567 8.99953C3.4815 8.99953 2.969 8.87203 2.49984 8.48536C2.49984 8.49953 2.49984 8.51287 2.49984 8.52787C2.49984 10.1595 4.2315 11.2704 5.7715 11.5795C5.459 11.7637 4.829 11.782 4.5215 11.782C4.30484 11.782 3.53817 11.6829 3.33317 11.6445C3.7615 12.982 5.3065 13.7337 6.779 13.7604C5.62734 14.6637 4.82817 14.9987 2.46984 14.9987H1.6665C3.1565 15.9537 5.054 16.6662 6.95567 16.6662C13.1473 16.6662 16.6665 11.947 16.6665 7.4987C16.6665 7.42703 16.6648 7.27703 16.6623 7.1262C16.6623 7.1112 16.6665 7.09703 16.6665 7.08203C16.6665 7.05953 16.6598 7.03786 16.6598 7.01536C16.6573 6.90203 16.6548 6.7962 16.6523 6.7412C17.3107 6.2662 17.8815 5.6737 18.3332 4.9987C17.729 5.26703 17.0807 5.44703 16.3998 5.5287C17.0948 5.11203 18.0823 4.1187 18.3332 3.33203Z" fill="#CFCFCF"/>
</svg>
