<svg width="24" height="30" viewBox="0 0 24 30" fill="none" xmlns="http://www.w3.org/2000/svg">
<path d="M7.22222 4.11111H4.11111C3.28599 4.11111 2.49467 4.43889 1.91122 5.02233C1.32778 5.60578 1 6.3971 1 7.22222V25.8889C1 26.714 1.32778 27.5053 1.91122 28.0888C2.49467 28.6722 3.28599 29 4.11111 29H19.6667C20.4918 29 21.2831 28.6722 21.8666 28.0888C22.45 27.5053 22.7778 26.714 22.7778 25.8889V7.22222C22.7778 6.3971 22.45 5.60578 21.8666 5.02233C21.2831 4.43889 20.4918 4.11111 19.6667 4.11111H16.5556M7.22222 4.11111C7.22222 5.82933 8.61511 7.22222 10.3333 7.22222H13.4444C15.1627 7.22222 16.5556 5.82933 16.5556 4.11111M7.22222 4.11111C7.22222 2.39289 8.61511 1 10.3333 1H13.4444C15.1627 1 16.5556 2.39289 16.5556 4.11111M15 13.4444H11.1111C10.4923 13.4444 9.89878 13.6903 9.46119 14.1279C9.02361 14.5654 8.77778 15.1589 8.77778 15.7778C8.77778 16.3966 9.02361 16.9901 9.46119 17.4277C9.89878 17.8653 10.4923 18.1111 11.1111 18.1111H12.6667C13.2855 18.1111 13.879 18.3569 14.3166 18.7945C14.7542 19.2321 15 19.8256 15 20.4444C15 21.0633 14.7542 21.6568 14.3166 22.0944C13.879 22.5319 13.2855 22.7778 12.6667 22.7778H8.77778M11.8889 22.7778V24.3333M11.8889 11.8889V13.4444" stroke="#EDF5FF" stroke-width="2" stroke-linecap="round" stroke-linejoin="round"/>
</svg>
