<svg width="56" height="56" viewBox="0 0 56 56" fill="none" xmlns="http://www.w3.org/2000/svg">
<mask id="mask0_2356_3324" style="mask-type:alpha" maskUnits="userSpaceOnUse" x="0" y="0" width="56" height="56">
<rect width="56" height="56" fill="#D9D9D9"/>
</mask>
<g mask="url(#mask0_2356_3324)">
<path d="M25.5594 29.6378L22.1761 26.3128C21.7483 25.885 21.2136 25.6711 20.5719 25.6711C19.9302 25.6711 19.3761 25.9044 18.9094 26.3711C18.4816 26.7989 18.2677 27.3433 18.2677 28.0044C18.2677 28.6656 18.4816 29.21 18.9094 29.6378L23.9261 34.6544C24.3927 35.1211 24.9372 35.3544 25.5594 35.3544C26.1816 35.3544 26.7261 35.1211 27.1927 34.6544L37.1094 24.7378C37.5761 24.2711 37.7997 23.7267 37.7802 23.1044C37.7608 22.4822 37.5372 21.9378 37.1094 21.4711C36.6427 21.0044 36.0886 20.7614 35.4469 20.7419C34.8052 20.7225 34.2511 20.9461 33.7844 21.4128L25.5594 29.6378ZM19.0261 50.7545L15.6427 45.0378L9.22607 43.6378C8.64274 43.5211 8.17607 43.2197 7.82607 42.7336C7.47607 42.2475 7.33996 41.7128 7.41774 41.1295L8.05941 34.5378L3.68441 29.5211C3.29552 29.0933 3.10107 28.5878 3.10107 28.0044C3.10107 27.4211 3.29552 26.9156 3.68441 26.4878L8.05941 21.4711L7.41774 14.8794C7.33996 14.2961 7.47607 13.7614 7.82607 13.2753C8.17607 12.7892 8.64274 12.4878 9.22607 12.3711L15.6427 10.9711L19.0261 5.25443C19.3372 4.74887 19.765 4.40859 20.3094 4.23359C20.8539 4.05859 21.3983 4.08776 21.9427 4.32109L28.0094 6.88776L34.0761 4.32109C34.6205 4.08776 35.165 4.05859 35.7094 4.23359C36.2539 4.40859 36.6816 4.74887 36.9927 5.25443L40.3761 10.9711L46.7927 12.3711C47.3761 12.4878 47.8427 12.7892 48.1927 13.2753C48.5427 13.7614 48.6789 14.2961 48.6011 14.8794L47.9594 21.4711L52.3344 26.4878C52.7233 26.9156 52.9177 27.4211 52.9177 28.0044C52.9177 28.5878 52.7233 29.0933 52.3344 29.5211L47.9594 34.5378L48.6011 41.1295C48.6789 41.7128 48.5427 42.2475 48.1927 42.7336C47.8427 43.2197 47.3761 43.5211 46.7927 43.6378L40.3761 45.0378L36.9927 50.7545C36.6816 51.26 36.2539 51.6003 35.7094 51.7753C35.165 51.9503 34.6205 51.9211 34.0761 51.6878L28.0094 49.1211L21.9427 51.6878C21.3983 51.9211 20.8539 51.9503 20.3094 51.7753C19.765 51.6003 19.3372 51.26 19.0261 50.7545Z" fill="#EDF5FF"/>
</g>
</svg>
